<?xml version="1.0" encoding="UTF-8"?>
<svg id="Layer_2" data-name="Layer 2" xmlns="http://www.w3.org/2000/svg" viewBox="0 0 14.09 14.36">
  <defs>
    <style>
      .cls-1 {
        fill: #d4282a;
        stroke-width: 0px;
      }
    </style>
  </defs>
  <g id="Layer_1-2" data-name="Layer 1">
    <path class="cls-1" d="M5.21,11.46c-.03-.12-.16-.2-.28-.15-.8.32-1.54.61-2.28.9-.26.1-.53.18-.75-.08-.21-.26-.1-.52.03-.77.28-.55.5-1.14.83-1.65.45-.69.2-.93-.48-1.09-.53-.12-1.04-.33-1.55-.5-.31-.11-.71-.16-.74-.6-.02-.44.34-.53.65-.66.64-.27,1.28-.55,1.96-.85.17-.08.24-.3.14-.46-.37-.59-.73-1.15-1.05-1.72-.19-.33-.63-.67-.26-1.1.34-.39.76-.1,1.13,0,.55.16,1.11.33,1.65.53.43.16.59.05.62-.42.05-.65.17-1.3.25-1.95.04-.34,0-.74.42-.85.48-.13.63.31.83.62.41.62.68,1.25,1.23,1.94.07.08.18.12.27.07.63-.35,1.2-1.16,1.79-1.7.24-.22.49-.42.81-.26.35.18.26.57.23.88-.06.67-.13,1.34-.24,2-.08.49.08.61.54.57.67-.06,1.35-.04,2.03-.07.31-.01.63-.04.79.31.19.41-.18.64-.41.89-.32.35-.63.71-1.01.98-.7.5-.87.84-.13,1.31.52.33.97.75,1.46,1.14.22.17.44.36.36.68-.08.33-.36.38-.63.41-.74.06-1.48.13-2.22.15-.43,0-.53.16-.43.56.16.67.31,1.35.45,2.03.06.27.1.57-.16.75-.3.22-.57.05-.83-.14-.69-.48-1.39-1.77-2.08-1.58-.57.15-.85,1.56-1.26,2.27-.18.3-.33.63-.76.54-.38-.08-.37-.45-.44-.75-.17-.7-.32-1.4-.48-2.14Z"/>
  </g>
</svg>