<svg xmlns="http://www.w3.org/2000/svg" width="50" height="45" viewBox="0 0 50 45" fill="none">
<path d="M25.603 44.3392L25.6 44.3409C25.4141 44.4459 25.2081 44.5 25 44.5C24.7919 44.5 24.5859 44.4459 24.4 44.3408L24.397 44.3392C23.9211 44.0746 17.9202 40.6388 12.0455 35.2355C6.14858 29.8118 0.500123 22.5161 0.5 14.5349C0.504071 10.8063 1.91644 7.23617 4.42011 4.60669C6.92298 1.97805 10.3111 0.504261 13.8396 0.5C18.2927 0.500087 22.1746 2.50814 24.5933 5.89133L25 6.46027L25.4067 5.89133C27.8254 2.50814 31.7073 0.500087 36.1604 0.5C39.6889 0.50426 43.077 1.97805 45.5799 4.60669C48.0836 7.23623 49.496 10.8064 49.5 14.5352C49.4997 22.5162 43.8513 29.8118 37.9545 35.2355C32.0798 40.6388 26.0789 44.0746 25.603 44.3392Z" fill="#D31D1D" stroke="#FFF3F2"/>
</svg>