<?xml version="1.0" encoding="UTF-8"?>
<svg id="Layer_2" data-name="Layer 2" xmlns="http://www.w3.org/2000/svg" viewBox="0 0 165.81 109.29">
  <defs>
    <style>
      .cls-1 {
        fill: #d32027;
      }

      .cls-1, .cls-2 {
        stroke-width: 0px;
      }

      .cls-2 {
        fill: #d42027;
      }
    </style>
  </defs>
  <g id="Layer_1-2" data-name="Layer 1">
    <g>
      <g>
        <path class="cls-1" d="M163.23,55.09c-3.26-4.91-9.46-5.61-12.96-5.57.44-1.09.69-2.14.66-3.04-.01-.37-.01-.79,0-1.24.01-4.68.05-14.43-12.69-18.35-4.51-1.38-8.36-.98-11.44.22v-.13c.71-4.85-.48-8.89-3.41-11.69-4.39-4.18-11.46-4.62-16.62-3.63-4.24.82-7.54,2.79-10.29,6.24-.03-.18-.06-.35-.1-.53l-.03-.14C94.06,5.31,87.32-.31,75.8.01c-13.3.38-21.15,7.73-21.12,19.71-4.35-1.27-15.76-3.56-25.86,3.42l-2.9,2.28c-1.91,1.72-3.48,3.76-4.95,6.91-1.25,2.68-1.77,5.22-1.8,7.53h-.05c-3.73,0-6.61,1.17-8.66,2.48C3.15,47.01-.05,57.24,0,63.02c.07,6.39,6.16,14.85,14.8,16.75,5.49,1.21,11.99,1.81,19.75,1.81,1.6,0,3.25-.03,4.96-.08,14.63-.43,50.4-1.19,50.76-1.2l47.77-1.19c.7.03,17.21.86,22.92-4.62,6.38-6.12,5.74-14.15,2.27-19.4ZM159.23,72.69c-4.09,3.92-16.59,4.16-21.15,3.92l-47.87,1.2c-.36,0-36.13.76-50.77,1.19-9.8.29-17.68-.26-24.11-1.67-7.27-1.6-12.77-8.89-12.83-14.33-.05-5.21,2.8-14.4,9.3-18.55,2.21-1.41,4.65-2.11,7.3-2.11h.22c.51,3.53,2.12,6.27,3.73,7.72,3.36,3.05,7.24,3.16,9.05,1.5,1.22-1.12,1.76-2.54,1.54-4.03-.31-2.02-2.04-4-4.51-5.17-2.74-1.3-5.22-2.02-7.44-2.33,0-2.01.44-4.26,1.54-6.64,1.93-4.13,3.97-6.07,7.04-8.2l.61-.42c9.73-6.28,20.67-3.45,23.85-2.42.11.04.22.08.33.11.8,2.89,2.82,7.1,5.22,8.75,1.28.89,2.7.92,3.8.08,1.25-.95,1.84-2.92,1.33-4.39-.79-2.28-3.87-4.63-8.21-6.32,0-.07,0-.13,0-.2-.31-11,6.5-17.52,18.68-17.87,10.26-.3,15.98,4.53,18.03,15.19l.03.14c.13.68.34,1.79.53,3.03-.31.52-.6,1.05-.89,1.61-.27.52-.74,1.12-1.21,1.7-1.09,1.38-2.34,2.94-1.82,4.67.13.43.65,1.87,2.04,2.31.66.21,1.72.24,3.01-.78,1.96-1.55,1.99-5.12,1.47-8.98,2.66-4.22,5.81-6.44,10.18-7.28,4.55-.87,10.72-.55,14.42,2.98,2.36,2.25,3.26,5.45,2.68,9.53l-.14.98c-.04.29-.08.57-.12.86-2.15,1.33-3.73,3-4.67,4.41-1.48,2.21-1.81,4.18-.9,5.29.4.48,1.34,1.17,3.16.4l1.22-1c2.25-2,3.02-4.73,3.48-7.55,2.55-1.3,6.3-2.22,11.14-.74,10.96,3.37,10.93,11.25,10.92,15.95-.01.48-.01.93,0,1.32.03.84-.37,2-1.02,3.2-2.47.49-6.04,2.33-7.07,4.04-.47.78-.38,1.43-.22,1.83.49,1.26,1.63,1.88,2.94,1.61,1.91-.39,4.23-2.62,5.86-5.15,2.26-.17,9.15-.25,12.22,4.39,2.9,4.38,3.43,11.09-1.91,16.22ZM21.92,42.58c1.94.34,3.99,1.02,6.14,2.04,1.68.79,2.93,2.12,3.11,3.29.1.66-.15,1.25-.76,1.81-.81.75-3.31.64-5.68-1.51-1.15-1.04-2.33-3.03-2.81-5.63ZM58.11,23.71c2.81,1.36,4.56,2.91,4.94,4.01.15.42-.06,1.26-.49,1.59-.09.07-.29.09-.87-.16-1.52-.66-2.71-3.32-3.58-5.44ZM94.85,25.06c.01,1.56-.19,2.86-.82,3.36-.42.34-.53.38-.69.35-.09-.02-.42-.24-.4-.64.02-.5.51-1.4,1.16-2.21.18-.22.43-.61.75-.86ZM123.36,32.11c-.43,1.4-1.06,2.64-2.13,3.59l-.71.63c.15-.77.9-2.39,2.68-4.08.05-.05.1-.09.16-.14ZM144.47,53.55c-.06.05-.29.44-.47.6-.72.64-.88.6-1.25.6.36-.34.98-.78,1.72-1.19Z"/>
        <path class="cls-1" d="M72.52,57.09c-4.18-5.51-9.05-8.47-14.47-8.8-9.47-.58-17.08,7.1-17.39,7.43l-1,1.02,1.14.85c5.44,4.06,10.36,5.89,14.61,6.44h.01c.73.09,1.44.15,2.13.16.23.02.46.02.69.02,8.84,0,14.11-5.42,14.19-5.51l.73-.77-.64-.84ZM63.33,61.09c-.69.19-1.43.36-2.21.47-1.12.88-2.52,1.4-4.04,1.4-1.91,0-3.64-.82-4.83-2.13-.67-.2-1.34-.43-2.04-.71h0c-2.09-.82-4.32-2.01-6.68-3.64,1.35-1.15,3.86-3.05,7.01-4.34.76-.32,1.56-.6,2.39-.82,1.13-.93,2.58-1.48,4.15-1.48,1.65,0,3.16.61,4.32,1.63.84.28,1.67.64,2.48,1.1,2.1,1.15,4.09,2.87,5.95,5.14-1.11.92-3.32,2.49-6.5,3.38Z"/>
        <path class="cls-1" d="M125.24,53.85c-5.13-4.65-10.46-6.67-15.85-6.01-9.42,1.16-15.48,10.1-15.74,10.48l-.79,1.19,1.28.63c5.49,2.69,10.22,3.7,14.22,3.7,11.5,0,17.01-8.27,17.09-8.39l.57-.89-.78-.71ZM116.27,59.77c-.67.3-1.39.57-2.17.8-1.2,1.18-2.84,1.9-4.66,1.9-1.47,0-2.83-.48-3.93-1.3-.71-.09-1.44-.21-2.2-.38-2.06-.44-4.29-1.17-6.69-2.25,1.01-1.24,2.84-3.26,5.28-4.99.6-.43,1.24-.85,1.92-1.23,1.18-1.87,3.25-3.11,5.62-3.11,1.38,0,2.66.42,3.72,1.13.8.1,1.6.28,2.4.53,2.4.73,4.78,2.1,7.14,4.08-.98,1.19-3.09,3.34-6.43,4.82Z"/>
        <g>
          <path class="cls-1" d="M57.08,48.59c-2.74,0-5.15,1.41-6.54,3.55.76-.32,1.56-.6,2.39-.82,1.13-.93,2.58-1.48,4.15-1.48,1.65,0,3.16.61,4.32,1.63.84.28,1.67.64,2.48,1.1-1.34-2.37-3.88-3.98-6.8-3.98ZM61.12,61.56c-1.12.88-2.52,1.4-4.04,1.4-1.91,0-3.64-.82-4.83-2.13-.67-.2-1.34-.43-2.04-.71,1.07,1.97,2.96,3.42,5.2,3.91h.01c.54.12,1.09.18,1.66.18.16,0,.32,0,.47-.02,2.36-.13,4.44-1.32,5.78-3.1-.69.19-1.43.36-2.21.47Z"/>
          <path class="cls-2" d="M64.89,56.4c0,1.76-.58,3.38-1.56,4.69-.69.19-1.43.36-2.21.47-1.12.88-2.52,1.4-4.04,1.4-1.91,0-3.64-.82-4.83-2.13-.67-.2-1.34-.43-2.04-.71h0c-.6-1.11-.94-2.38-.94-3.72,0-1.57.46-3.03,1.27-4.26.76-.32,1.56-.6,2.39-.82,1.13-.93,2.58-1.48,4.15-1.48,1.65,0,3.16.61,4.32,1.63.84.28,1.67.64,2.48,1.1.65,1.13,1.01,2.44,1.01,3.83Z"/>
        </g>
        <g>
          <path class="cls-1" d="M109.44,47.96c-3.54,0-6.56,2.36-7.54,5.59.6-.43,1.24-.85,1.92-1.23,1.18-1.87,3.25-3.11,5.62-3.11,1.38,0,2.66.42,3.72,1.13.8.1,1.6.28,2.4.53-1.45-1.77-3.66-2.91-6.12-2.91ZM114.1,60.57c-1.2,1.18-2.84,1.9-4.66,1.9-1.47,0-2.83-.48-3.93-1.3-.71-.09-1.44-.21-2.2-.38,1.45,1.79,3.66,2.93,6.13,2.93,2.92,0,5.48-1.59,6.83-3.95-.67.3-1.39.57-2.17.8Z"/>
          <path class="cls-2" d="M117.33,55.84c0,1.43-.38,2.77-1.06,3.93-.67.3-1.39.57-2.17.8-1.2,1.18-2.84,1.9-4.66,1.9-1.47,0-2.83-.48-3.93-1.3-.71-.09-1.44-.21-2.2-.38-1.1-1.35-1.75-3.08-1.75-4.95,0-.8.12-1.56.34-2.29.6-.43,1.24-.85,1.92-1.23,1.18-1.87,3.25-3.11,5.62-3.11,1.38,0,2.66.42,3.72,1.13.8.1,1.6.28,2.4.53,1.1,1.36,1.77,3.09,1.77,4.97Z"/>
        </g>
      </g>
      <path class="cls-1" d="M109.65,93.21c3.67,1.1,7.8,2.09,11.33,0,1.57-.93,2.97-2.53,3.14-4.4.18-1.99-1.33-3.74-3.17-4.3-3.37-1.01-6.95,1.47-8.39,4.4s-1.29,6.5.84,9.13,6.22,3.97,9.55,2.78c.76-.27,1.27-1.02,1.05-1.85-.2-.74-1.08-1.32-1.85-1.05-1.92.69-4.08.29-5.65-1.01s-2.24-3.28-1.79-5.2c.48-2.08,1.94-3.85,4.01-4.34.89-.21,2.08-.01,2.37.87.27.81-.78,1.84-1.47,2.27-2.8,1.77-6.25.68-9.18-.2-1.85-.56-2.64,2.34-.8,2.89h0Z"/>
      <path class="cls-1" d="M47.23,107.43c-1.37-4.91-2.23-9.92-2.55-15.01l-1.1,1.45c1.34-.43,2.84-.89,4.25-.54.83.21,1.74.8,1.95,1.69s-.48,1.63-1.19,2.04c-1.22.71-2.75.66-4.11.68-1.93.02-1.93,3.02,0,3,2.05-.02,4.28-.11,6.01-1.34,1.61-1.14,2.63-2.97,2.23-4.97-.37-1.84-1.95-3.26-3.66-3.86-2.04-.71-4.29-.23-6.28.41-.6.19-1.14.78-1.1,1.45.33,5.35,1.22,10.65,2.66,15.81.52,1.86,3.41,1.07,2.89-.8h0Z"/>
      <path class="cls-1" d="M58.04,91.39l.93,14c.05.81.65,1.5,1.5,1.5.77,0,1.55-.69,1.5-1.5l-.93-14c-.05-.81-.65-1.5-1.5-1.5-.77,0-1.55.69-1.5,1.5h0Z"/>
      <path class="cls-1" d="M83.37,102.35c-.43.73-1.33.9-2.06.54-2.9-1.46-5.98-2.56-9.14-3.32v5.09c0,1.94-3,1.93-3,0v-13.27c0-1.94,3-1.93,3,0v4.21c1.88-1.89,3.76-3.79,5.64-5.68,1.37-1.37,3.49.75,2.13,2.12-1.7,1.71-3.41,3.42-5.1,5.13,2.75.79,5.42,1.85,7.99,3.13.73.36.93,1.39.54,2.05Z"/>
      <path class="cls-1" d="M91.52,100.72c.02-3.98.05-7.97.07-11.95l-2.26,1.3c4.27,2.32,7.2,6.32,10,10.17.87,1.2,2.71.8,2.8-.76.21-3.77.26-7.54.15-11.32-.06-1.93-3.06-1.93-3,0,.11,3.77.06,7.55-.15,11.32l2.8-.76c-3.1-4.27-6.34-8.67-11.08-11.25-1-.54-2.25.13-2.26,1.3-.02,3.98-.05,7.97-.07,11.95-.01,1.93,2.99,1.93,3,0h0Z"/>
    </g>
  </g>
</svg>