<svg width="156" height="91" viewBox="0 0 156 91" fill="none" xmlns="http://www.w3.org/2000/svg">
<g clip-path="url(#clip0_322_109)">
<path d="M27.9171 22.6228C25.0077 24.6174 22.8696 26.5718 20.9209 30.6948C17.7138 37.5084 19.9872 43.4653 22.5989 45.8079C25.2106 48.1505 28.2013 48.3914 29.5139 47.2001C31.9497 44.9913 30.0417 41.9794 27.0104 40.5605C8.71481 31.9665 1.27206 50.4529 1.35326 58.6855C1.40739 64.1337 6.76616 71.4694 14.3172 73.1159C20.2172 74.401 27.5923 74.9766 37.2273 74.6955C51.1249 74.2939 84.8744 73.5844 84.8744 73.5844L129.802 72.4734C129.802 72.4734 145.391 73.3033 150.438 68.511C155.811 63.4109 155.526 56.6508 152.4 51.979C149.274 47.3072 142.522 47.0528 139.206 47.441C136.649 47.7355 132.305 50.1986 132.779 51.4034C134.091 54.683 140.776 47.2536 140.668 43.3716C140.56 39.4896 141.818 29.9853 129.585 26.2639C115.511 21.9803 108.542 37.1737 113.915 34.9248L114.74 34.202C117.271 31.9799 117.541 28.5128 118.042 25.0725C119.693 13.654 109.138 10.535 100.612 12.1548C95.1184 13.1989 91.7218 16.4518 89.0424 21.5921C88.1628 23.2788 85.8081 25.0725 86.2818 26.6387C86.4983 27.3616 87.3508 28.901 89.1642 27.4821C91.3158 25.7954 90.0573 19.4771 89.4619 16.3982C87.8109 7.9113 83.2911 1.01737 71.3557 1.35202C59.6773 1.68668 52.3564 7.8176 52.6812 19.1424C52.7353 21.0165 54.9004 26.4915 57.4174 28.2049C59.6097 29.7042 60.9764 27.0002 60.4622 25.541C58.7842 20.7755 40.9757 13.6808 27.89 22.6228H27.9171Z" stroke="#D31D1D" stroke-width="3" stroke-miterlimit="10"/>
<path d="M39.1759 52.7286C39.1759 52.7286 54.4809 37.1871 67.3095 53.8932C67.3095 53.8932 56.3348 65.392 39.1759 52.7286Z" stroke="#D31D1D" stroke-width="3" stroke-miterlimit="10"/>
<path d="M89.0559 54.9775C89.0559 54.9775 101.221 36.9328 116.932 51.0419C116.932 51.0419 108.272 64.3345 89.0559 54.9775Z" stroke="#D31D1D" stroke-width="3" stroke-miterlimit="10"/>
<path d="M53.7502 58.6453C57.1507 58.6453 59.9074 55.9184 59.9074 52.5546C59.9074 49.1907 57.1507 46.4638 53.7502 46.4638C50.3497 46.4638 47.593 49.1907 47.593 52.5546C47.593 55.9184 50.3497 58.6453 53.7502 58.6453Z" fill="#D31D1D" stroke="#D31D1D" stroke-width="2" stroke-miterlimit="10"/>
<path d="M102.899 58.1902C106.337 58.1902 109.124 55.4333 109.124 52.0325C109.124 48.6317 106.337 45.8748 102.899 45.8748C99.4615 45.8748 96.6746 48.6317 96.6746 52.0325C96.6746 55.4333 99.4615 58.1902 102.899 58.1902Z" fill="#D31D1D" stroke="#D31D1D" stroke-width="2" stroke-miterlimit="10"/>
<path d="M57.8369 84.4407C57.8369 84.4407 60.1509 86.7432 62.2214 85.9534C65.7127 84.6281 62.7762 82.9147 60.8546 84.0525C56.1318 86.8637 59.4473 91.2276 64.3324 87.6802" stroke="#D31D1D" stroke-width="1.5" stroke-linecap="round" stroke-linejoin="round"/>
<path d="M70.1377 82.9549L69.1364 89.1661" stroke="#D31D1D" stroke-width="1.5" stroke-linecap="round" stroke-linejoin="round"/>
<path d="M74.0756 83.7446L69.3258 87.118C69.3258 87.118 68.6762 87.4526 68.2161 87.3455C67.9725 87.292 67.8643 87.0109 67.9861 86.7967C68.162 86.5022 68.6221 86.0872 69.7317 86.1943C71.4503 86.3683 72.357 90.8929 74.9552 87.3723" stroke="#D31D1D" stroke-width="1.5" stroke-linecap="round" stroke-linejoin="round"/>
<path d="M50.1912 89.3669L50.11 86.8904L50.0153 83.8919C50.0153 83.8116 50.0694 83.7313 50.1641 83.7179C50.8137 83.5706 52.7758 83.4769 53.7908 84.0525C54.8327 84.6415 54.5621 86.1006 53.9126 86.529C52.4105 87.4928 50.2859 86.9841 50.2859 86.9841" stroke="#D31D1D" stroke-width="1.5" stroke-linecap="round" stroke-linejoin="round"/>
<path d="M43.5739 83.9454L47.2411 84.8691" stroke="#D31D1D" stroke-width="1.5" stroke-linecap="round" stroke-linejoin="round"/>
<path d="M41.6388 87.4527L46.7134 87.1046" stroke="#D31D1D" stroke-width="1.5" stroke-linecap="round" stroke-linejoin="round"/>
<path d="M47.2411 89.0322L44.1693 90.3307" stroke="#D31D1D" stroke-width="1.5" stroke-linecap="round" stroke-linejoin="round"/>
<path d="M83.034 84.5344C83.034 84.5344 82.0461 82.1383 79.7321 83.6777C78.1218 84.762 75.9295 89.6748 81.6131 88.5503C84.2654 88.0283 84.0624 85.4715 83.873 84.4541C83.8324 84.2399 83.5482 84.173 83.4129 84.3604C82.7092 85.3912 81.9379 88.4834 83.4941 88.5369C84.7391 88.5905 86.1599 87.4125 86.1599 87.4125" stroke="#D31D1D" stroke-width="1.5" stroke-linecap="round" stroke-linejoin="round"/>
<path d="M91.3564 82.9549L89.5295 89.3401C89.5295 89.3401 90.6662 88.7645 92.0601 88.9118C93.4539 89.059 94.3741 89.2866 94.9289 88.9385" stroke="#D31D1D" stroke-width="1.5" stroke-linecap="round" stroke-linejoin="round"/>
<path d="M102.859 84.9092C102.859 84.9092 102.358 82.2186 99.814 83.1556C97.933 83.8383 97.6894 85.6321 97.6759 86.6896C97.6488 89.5543 101.939 88.818 102.602 88.0015C103.062 87.4259 104.144 84.9494 103.4 85.0431C101.357 85.2841 101.817 87.6802 102.25 88.296C103.373 89.8756 105.051 88.3361 105.051 88.3361" stroke="#D31D1D" stroke-width="1.5" stroke-linecap="round" stroke-linejoin="round"/>
<path d="M106.499 83.3832L110.207 81.7769" stroke="#D31D1D" stroke-width="1.5" stroke-linecap="round" stroke-linejoin="round"/>
<path d="M107.879 86.0739L114.375 86.0605" stroke="#D31D1D" stroke-width="1.5" stroke-linecap="round" stroke-linejoin="round"/>
<path d="M107.541 89.0322L110.965 90.3307" stroke="#D31D1D" stroke-width="1.5" stroke-linecap="round" stroke-linejoin="round"/>
</g>
<defs>
<clipPath id="clip0_322_109">
<rect width="156" height="91" fill="white"/>
</clipPath>
</defs>
</svg>
